<?xml version="1.0" encoding="UTF-8"?>
<svg viewBox="0 0 222 222" version="1.1" xmlns="http://www.w3.org/2000/svg" xmlns:xlink="http://www.w3.org/1999/xlink">
    <title>编组@1x</title>
    <defs>
        <filter id="filter-1">
            <feColorMatrix in="SourceGraphic" type="matrix" values="0 0 0 0 0.674510 0 0 0 0 0.686275 0 0 0 0 0.725490 0 0 0 1.000000 0"></feColorMatrix>
        </filter>
    </defs>
    <g id="----↪图片" stroke="none" stroke-width="1" fill="none" fill-rule="evenodd">
        <g id="图片展示" transform="translate(-675.000000, -109.000000)">
            <g id="编组" transform="translate(675.000000, 109.000000)">
                <rect id="矩形" fill="#E9EBF0" x="0" y="0" width="222" height="222"></rect>
                <g filter="url(#filter-1)" id="图片，照片">
                    <g transform="translate(75.000000, 74.000000)">
                        <rect id="矩形" fill="#000000" fill-rule="nonzero" opacity="0" x="0" y="0" width="72" height="72"></rect>
                        <path d="M61.3125,7.875 C62.8657734,7.875 64.125,9.13422656 64.125,10.6875 L64.125,61.3125 C64.125,62.8657734 62.8657734,64.125 61.3125,64.125 L10.6875,64.125 C9.13422656,64.125 7.875,62.8657734 7.875,61.3125 L7.875,10.6875 C7.875,9.13422656 9.13422656,7.875 10.6875,7.875 L61.3125,7.875 Z M25.6184297,36.1634766 C25.3197748,36.3293931 25.0628253,36.561143 24.8670703,36.8411484 L13.7197266,52.7873203 C13.0078125,53.8057969 13.2562969,55.2085313 14.2747031,55.9205156 C14.6517908,56.1841234 15.1006277,56.3257929 15.5607188,56.3264297 L56.1854531,56.3840884 C57.4280859,56.3859141 58.4368594,55.3800234 58.4386195,54.1373203 C58.4393279,53.6417711 58.2764214,53.1598486 57.9751875,52.7663672 L49.0509844,41.1102422 C48.2955469,40.1235469 46.88325,39.9360938 45.896625,40.6915312 C45.6525939,40.8783837 45.4494324,41.1132518 45.2996719,41.3816484 L40.1488594,50.6119219 C39.5433281,51.6969844 38.1727969,52.0858125 37.0876641,51.4802813 C36.7220127,51.2762463 36.4205512,50.9742248 36.2171953,50.6081953 L28.6780078,37.0376016 C28.0745156,35.9513437 26.7047578,35.5599844 25.6184297,36.1634766 L25.6184297,36.1634766 Z M47.1796875,18.28125 C44.0730703,18.28125 41.5546875,20.7996328 41.5546875,23.90625 C41.5546875,27.0128672 44.0730703,29.53125 47.1796875,29.53125 C50.2863047,29.53125 52.8046875,27.0128672 52.8046875,23.90625 C52.8046875,20.7996328 50.2863047,18.28125 47.1796875,18.28125 Z" id="形状" fill="#000000" fill-rule="nonzero"></path>
                    </g>
                </g>
            </g>
        </g>
    </g>
</svg>